<svg xmlns="http://www.w3.org/2000/svg" viewBox="0 0 64 64">
  <rect width="64" height="64" rx="14" fill="#f5e9d2"/>
  <rect x="9" y="9" width="46" height="46" rx="13" fill="#e76f3c" stroke="#17233a" stroke-width="4"/>
  <g fill="none" stroke="#fff8e9" stroke-linecap="round" stroke-linejoin="round" stroke-width="2.6" transform="translate(20 20)">
    <path d="m12 10 2 4v3a1 1 0 0 0 1 1h2a1 1 0 0 0 1-1v-3a8 8 0 1 0-16 0v3a1 1 0 0 0 1 1h2a1 1 0 0 0 1-1v-3l2-4h4Z"/>
    <path d="M4.82 7.9 8 10"/>
    <path d="M15.18 7.9 12 10"/>
    <path d="M16.93 10H20a2 2 0 0 1 0 4H2"/>
  </g>
</svg>
